<svg width="113" height="12" viewBox="0 0 113 12" fill="none" xmlns="http://www.w3.org/2000/svg">
<path d="M0.968 12V0H8V1.056H2.696V5.64H7.256V6.672H2.696V12H0.968ZM8.69488 12L12.8709 0H14.9109L18.9669 12H17.1669L15.9189 8.424H11.1669L9.91888 12H8.69488ZM11.4789 7.512H15.6069L13.5909 1.272L11.4789 7.512ZM21.593 12L21.665 0H23.801L28.001 9.888H28.025L32.177 0H34.217L34.289 12H32.585L32.513 2.088L28.409 12H26.993L22.889 2.088L22.865 12H21.593ZM38.2336 12V0H39.9616V12H38.2336ZM43.9289 12V0H45.6569V10.944H51.0329V12H43.9289ZM55.1169 12V7.128L51.0129 0H52.9809L56.2449 5.736L59.4609 0H60.8769L56.8689 7.008V12H55.1169ZM68.6789 12V0H75.7109V1.056H70.4069V5.64H74.9669V6.672H70.4069V12H68.6789ZM76.4058 12L80.5818 0H82.6218L86.6778 12H84.8778L83.6298 8.424H78.8778L77.6298 12H76.4058ZM79.1898 7.512H83.3178L81.3018 1.272L79.1898 7.512ZM89.3039 12V0H92.5199C93.8159 0 94.8239 0.32 95.5439 0.96C96.2799 1.6 96.6479 2.512 96.6479 3.696C96.6479 4.64 96.4399 5.4 96.0239 5.976C95.6079 6.552 95.0959 6.976 94.4879 7.248L97.4639 12H95.4719L92.8079 7.608H91.0319V12H89.3039ZM91.0319 6.6H92.4479C93.1999 6.6 93.7839 6.392 94.1999 5.976C94.6319 5.56 94.8479 4.816 94.8479 3.744C94.8479 2.784 94.6319 2.088 94.1999 1.656C93.7839 1.208 93.1519 0.983999 92.3039 0.983999H91.0319V6.6ZM100.296 12L100.368 0H102.504L106.704 9.888H106.728L110.88 0H112.92L112.992 12H111.288L111.216 2.088L107.112 12H105.696L101.592 2.088L101.568 12H100.296Z" fill="#582D09"/>
</svg>
