<svg width="8" height="10" viewBox="0 0 8 10" fill="none" xmlns="http://www.w3.org/2000/svg">
<path d="M1.25 4.99998H0M1.25 4.99998V4.87498C1.25 4.39173 1.64175 3.99998 2.125 3.99998C2.60825 3.99998 3 4.39173 3 4.87498V5.12497C3 5.60822 2.60825 5.99997 2.125 5.99997C1.64175 5.99997 1.25 5.60822 1.25 5.12497V4.99998ZM3.25 4.99998H7.5M4.25 7.96377L0 7.99997M4.25 7.96377V7.83877M4.25 7.96377V8.08877M6 8L7.5 7.99997M4.25 7.83877V8.08877M4.25 7.83877C4.25 7.35552 4.64175 6.96377 5.125 6.96377C5.60825 6.96377 6 7.35552 6 7.83877V8.08877C6 8.57201 5.60825 8.96377 5.125 8.96377C4.64175 8.96377 4.25 8.57201 4.25 8.08877M4.25 2L0 1.99998M4.25 2V1.875M4.25 2V2.125M6 2L7.5 1.99998M4.25 1.875V2.125M4.25 1.875C4.25 1.39175 4.64175 1 5.125 1C5.60825 1 6 1.39175 6 1.875V2.125C6 2.60825 5.60825 3 5.125 3C4.64175 3 4.25 2.60825 4.25 2.125M3 4.87498V5.12497C3 5.60822 2.60825 5.99997 2.125 5.99997V5.99997C1.64175 5.99997 1.25 5.60822 1.25 5.12497V4.87498C1.25 4.39173 1.64175 3.99998 2.125 3.99998V3.99998C2.60825 3.99998 3 4.39173 3 4.87498Z" stroke="#281709"/>
</svg>
