<svg width="70" height="78" viewBox="0 0 70 78" fill="none" xmlns="http://www.w3.org/2000/svg">
<path d="M41.0578 77H14.5162C14.0684 77 13.6752 76.7024 13.5537 76.2714L1.1757 32.3726C1.06879 31.9935 1.19444 31.5869 1.49661 31.3342L17.3198 18.1002M47.289 77H54.845C55.2906 77 55.6823 76.7053 55.8058 76.2772L68.4711 32.3805C68.5817 31.9974 68.4541 31.5854 68.1465 31.3317L35.482 4.39784C35.104 4.08619 34.556 4.09422 34.1873 4.4168L32.4528 5.93449" stroke="#582D09" stroke-width="2"/>
<path d="M32.0077 76.8517C40.462 70.3796 47.8746 67.4717 59.0096 66.9114M18.9518 76.7033C26.2775 68.9815 48.3841 61.6254 60.1965 62.3122M12.2755 71.5106C13.9006 70.165 16.0255 68.8346 18.5067 67.5589M60.79 57.2678C53.3719 57.1869 43.8443 58.7872 34.9749 61.3058M8.71483 59.3449C12.9254 60.8381 15.4691 62.2636 18.5067 67.5589M18.5067 67.5589C20.6463 66.4588 23.0507 65.3995 25.6281 64.4062M7.37957 54.1522C17.04 55.8148 21.2338 58.0358 25.6281 64.4062M25.6281 64.4062C28.5646 63.2745 31.7256 62.2285 34.9749 61.3058M34.9749 61.3058C29.9414 56.0474 26.4218 53.938 18.8035 51.7784M6.63776 51.7784H39.2774M62.5703 51.7784H39.2774M39.2774 51.7784C38.8324 45.1021 44.9152 39.0193 51.2948 37.8324C57.6744 36.6455 61.9579 38.0958 65.9827 41.9865M33.9364 46.8825C36.5859 46.5528 37.5839 45.9508 36.6742 43.5735C36.445 42.9745 36.7582 42.2909 37.3676 42.091C39.6065 41.3567 40.4771 40.3442 40.3136 38.2311C40.2538 37.4577 40.9597 36.7956 41.7226 36.9361C43.9777 37.3515 45.0865 36.6733 45.6955 34.2481C45.858 33.6009 46.5594 33.2253 47.1809 33.4682C49.729 34.4641 51.1079 34.2077 52.3588 32.7039C52.8186 32.151 53.6894 32.1093 54.1668 32.647C55.8546 34.5475 57.2417 34.7005 59.2939 33.4591C59.8933 33.0965 60.6913 33.3673 60.9532 34.017C61.7661 36.0338 62.8537 36.611 65.2408 36.3488" stroke="#582D09"/>
<path d="M7.0829 32.1946C4.84584 27.811 3.97407 25.2501 5.30246 20.1772C9.05553 24.5216 9.0388 27.1429 7.82472 31.8979C7.67714 29.5071 7.65067 28.1881 6.78608 25.9634C6.61092 28.3348 6.82766 29.7086 7.0829 32.1946Z" fill="#582D09"/>
<path d="M21.9191 12.0173C19.6821 7.63372 18.8103 5.07282 20.1387 0C23.8918 4.34432 23.875 6.96569 22.661 11.7206C22.5134 9.32988 22.4869 8.01081 21.6223 5.78613C21.4472 8.15755 21.6639 9.53139 21.9191 12.0173Z" fill="#582D09"/>
<path d="M11.6821 44.0636C5.75693 40.1021 4.62018 36.0011 2.18689 28.9307C7.13677 34.0017 9.5015 37.0486 12.1272 43.3218L11.6821 44.0636Z" fill="#582D09"/>
<path d="M26.5183 23.8863C20.5932 19.9248 19.4564 15.8238 17.0231 8.75336C21.973 13.8244 24.3377 16.8713 26.9634 23.1445L26.5183 23.8863Z" fill="#582D09"/>
<path d="M10.1456 35.6784C14.06 32.5249 14.5762 29.6215 15.8011 24.5816C12.6549 28.4279 11.1956 30.6949 9.77852 35.2003L10.1456 35.6784Z" fill="#582D09"/>
<path d="M24.9819 15.5011C28.8963 12.3475 29.4124 9.44417 30.6374 4.4043C27.4911 8.25063 26.0319 10.5176 24.6148 15.023L24.9819 15.5011Z" fill="#582D09"/>
<path d="M15.6878 64.8343C17.0243 58.1795 18.3177 54.6714 23.4027 49.553C22.3335 51.6574 21.586 53.6396 21.0469 55.7254C20.2091 58.9668 19.8419 62.4871 17.7266 65.0821C17.0675 65.8905 16.3036 66.5951 15.3911 67.2081L15.6878 64.8343Z" fill="#582D09"/>
<path d="M30.5241 44.657C31.8606 38.0022 33.154 34.4941 38.2389 29.3757C37.1697 31.4802 36.4222 33.4623 35.8831 35.5482C35.0453 38.7896 34.6782 42.3099 32.5628 44.9048C31.9038 45.7132 31.1398 46.4178 30.2274 47.0308L30.5241 44.657Z" fill="#582D09"/>
<path d="M14.9404 64.439C14.7538 57.6539 14.075 53.9771 9.93335 48.0694C10.6296 50.3248 11.0295 52.4052 11.2065 54.5523C11.4815 57.8889 11.2454 61.4204 12.8893 64.3369C13.4014 65.2455 14.0346 66.0697 14.8296 66.8287L14.9404 64.439Z" fill="#582D09"/>
<path d="M29.7766 44.2618C29.5899 37.4766 28.9112 33.7998 24.7695 27.8921C25.4657 30.1476 25.8657 32.2279 26.0427 34.375C26.3177 37.7116 26.0816 41.2431 27.7254 44.1597C28.2376 45.0683 28.8708 45.8924 29.6658 46.6515L29.7766 44.2618Z" fill="#582D09"/>
<path d="M15.5587 51.3521C15.206 45.583 15.5049 42.4133 18.5728 37.0906C18.2095 38.7882 18.0238 40.3583 17.9874 41.9368C17.9102 45.2838 18.5784 48.8516 16.9552 51.7797C16.6462 52.3371 16.2761 52.8649 15.8326 53.3706L15.5587 51.3521Z" fill="#582D09"/>
<path d="M30.3948 31.1748C30.0422 25.4057 30.341 22.236 33.409 16.9133C33.0457 18.6109 32.86 20.181 32.8236 21.7595C32.7463 25.1065 33.4145 28.6743 31.7913 31.6024C31.4824 32.1598 31.1123 32.6876 30.6688 33.1933L30.3948 31.1748Z" fill="#582D09"/>
<path d="M15.5116 57.6098C15.8045 62.8655 14.685 66.793 11.682 72.2524H12.869C16.1667 66.8079 17.2212 62.772 16.9221 57.0624C16.7174 53.154 15.2766 49.4459 13.6718 45.8761C10.1264 37.9897 9.64636 32.8258 11.682 25.3699C8.41808 33.0063 8.01782 38.1483 11.5047 45.5149C13.3389 49.3897 15.2731 53.3294 15.5116 57.6098Z" fill="#582D09"/>
<path d="M30.3478 37.4325C30.6407 42.6883 29.5212 46.6157 26.5183 52.0752H27.7052C31.0029 46.6306 32.0574 42.5948 31.7584 36.8852C31.5536 32.9767 30.1128 29.2686 28.508 25.6989C24.9626 17.8125 24.4826 12.6486 26.5183 5.19269C23.2543 12.829 22.8541 17.9711 26.341 25.3377C28.1751 29.2125 30.1093 33.1522 30.3478 37.4325Z" fill="#582D09"/>
</svg>
