<svg width="16" height="16" viewBox="0 0 16 16" fill="none" xmlns="http://www.w3.org/2000/svg">
<path d="M1 11L0.646447 10.6464L0.5 10.7929V11H1ZM11 1L11.3536 0.646447C11.1583 0.451184 10.8417 0.451184 10.6464 0.646447L11 1ZM15 5L15.3536 5.35355C15.5488 5.15829 15.5488 4.84171 15.3536 4.64645L15 5ZM5 15V15.5H5.20711L5.35355 15.3536L5 15ZM1 15H0.5C0.5 15.2761 0.723858 15.5 1 15.5V15ZM1.35355 11.3536L11.3536 1.35355L10.6464 0.646447L0.646447 10.6464L1.35355 11.3536ZM10.6464 1.35355L14.6464 5.35355L15.3536 4.64645L11.3536 0.646447L10.6464 1.35355ZM14.6464 4.64645L4.64645 14.6464L5.35355 15.3536L15.3536 5.35355L14.6464 4.64645ZM5 14.5H1V15.5H5V14.5ZM1.5 15V11H0.5V15H1.5Z" fill="#3993DD"/>
</svg>
